HIERARCHY
ROOT Hips
{
	OFFSET 0.00000 0.00000 0.00000
	CHANNELS 6 Xposition Yposition Zposition Zrotation Yrotation Xrotation 
	JOINT LHipJoint
	{
		OFFSET 0 0 0
		CHANNELS 3 Zrotation Yrotation Xrotation
		JOINT LeftHip
		{
			OFFSET 1.56741 -1.82513 0.67319
			CHANNELS 3 Zrotation Yrotation Xrotation
			JOINT LeftKnee
			{
				OFFSET 2.35708 -6.47604 0.00000
				CHANNELS 3 Zrotation Yrotation Xrotation
				JOINT LeftAnkle
				{
					OFFSET 2.70636 -7.43567 0.00000
					CHANNELS 3 Zrotation Yrotation Xrotation
					JOINT LeftToe
					{
						OFFSET 0.20427 -0.56122 2.08535
						CHANNELS 3 Zrotation Yrotation Xrotation
						End Site
						{
							OFFSET 0.00000 -0.00000 1.08535
						}
					}
				}
			}
		}
	}
	JOINT RHipJoint
	{
		OFFSET 0 0 0
		CHANNELS 3 Zrotation Yrotation Xrotation
		JOINT RightHip
		{
			OFFSET -1.51422 -1.82513 0.67319
			CHANNELS 3 Zrotation Yrotation Xrotation
			JOINT RightKnee
			{
				OFFSET -2.48824 -6.83638 0.00000
				CHANNELS 3 Zrotation Yrotation Xrotation
				JOINT RightAnkle
				{
					OFFSET -2.70033 -7.41909 0.00000
					CHANNELS 3 Zrotation Yrotation Xrotation
					JOINT RightToe
					{
						OFFSET -0.19750 -0.54263 2.22151
						CHANNELS 3 Zrotation Yrotation Xrotation
						End Site
						{
							OFFSET -0.00000 -0.00000 1.14915
						}
					}
				}
			}
		}
	}
	JOINT lowerback
	{
		OFFSET 0 0 0
		CHANNELS 3 Zrotation Yrotation Xrotation
		JOINT Chest
		{
			OFFSET -0.01567 2.12874 -0.15842
			CHANNELS 3 Zrotation Yrotation Xrotation
			JOINT Chest2
			{
				OFFSET 0.06098 2.13326 -0.01043
				CHANNELS 3 Zrotation Yrotation Xrotation
				JOINT lowerneck
				{
					OFFSET 0 0 0
					CHANNELS 3 Zrotation Yrotation Xrotation
					JOINT Neck
					{
						OFFSET -0.05040 1.78432 0.13387
						CHANNELS 3 Zrotation Yrotation Xrotation
						JOINT Head
						{
							OFFSET -0.00180 1.76880 -0.33303
							CHANNELS 3 Zrotation Yrotation Xrotation
							End Site
							{
								OFFSET 0.00734 1.81249 -0.12719
							}
						}
					}
				}
				JOINT LeftCollar
				{
					OFFSET 0 0 0
					CHANNELS 3 Zrotation Yrotation Xrotation
					JOINT LeftShoulder
					{
						OFFSET 3.72199 0.94188 -0.54317
CHANNELS 3 Zrotation Xrotation Yrotation
						JOINT LeftElbow
						{
OFFSET 0 -5.146010 0.000000
CHANNELS 3 Zrotation Xrotation Yrotation
							JOINT LeftWrist
							{
OFFSET 0 -3.644520 -0.000000
CHANNELS 3 Zrotation Xrotation Yrotation
								JOINT lhand
								{
									OFFSET 0 0 0
CHANNELS 3 Zrotation Xrotation Yrotation
									JOINT LFingers
									{
OFFSET 0 -0.562280 0.000000
CHANNELS 3 Zrotation Xrotation Yrotation
										End Site
										{
OFFSET 0 -0.453320 0.000000
										}
									}
								}
								JOINT LThumb
								{
OFFSET 0 0.000000 0.000000
CHANNELS 3 Zrotation Xrotation Yrotation
									End Site
									{
OFFSET 0 -0.460250 0.460250
									}
								}
							}
						}
					}
				}
				JOINT RightCollar
				{
					OFFSET 0 0 0
					CHANNELS 3 Zrotation Yrotation Xrotation
					JOINT RightShoulder
					{
						OFFSET -3.30253 1.22679 -0.46941
CHANNELS 3 Zrotation Xrotation Yrotation
						JOINT RightElbow
						{
OFFSET 0 -5.339130 0.000000
CHANNELS 3 Zrotation Xrotation Yrotation
							JOINT RightWrist
							{
OFFSET 0 -3.564780 -0.000000
CHANNELS 3 Zrotation Xrotation Yrotation
								JOINT rhand
								{
									OFFSET 0 0 0
CHANNELS 3 Zrotation Xrotation Yrotation
									JOINT RFingers
									{
OFFSET 0 -0.857470 0.000000
CHANNELS 3 Zrotation Xrotation Yrotation
										End Site
										{
OFFSET 0 -0.691320 0.000000
										}
									}
								}
								JOINT RThumb
								{
OFFSET 0 0.000000 0.000000
CHANNELS 3 Zrotation Xrotation Yrotation
									End Site
									{
OFFSET 0 -0.701870 0.701870
									}
								}
							}
						}
					}
				}
			}
		}
	}
}
MOTION
Frames: 10
Frame Time: 0.008333333333333333
-3.016167 17.709847 -1.468264 -908.237119 -244.861922 1258.514725 0.000000 0.000000 0.000000 -11.476331 -12.063017 -24.819069 2.075094 9.020810 25.860442 -0.273958 -10.494348 -1.480676 0.707471 -5.373084 -14.976404 0.000000 0.000000 0.000000 32.460693 -11.399278 -6.699786 -6.058303 -14.483626 45.213364 -0.000646 3.052661 -2.171689 -0.450044 4.304077 -11.933845 -0.940206 3.818743 8.986083 -1.799557 4.961008 1.772435 -1.903856 2.484804 -3.101507 -5.246375 2.654551 -8.342255 -4.601395 6.898555 27.484466 0.083515 2.420146 10.172889 0.000000 0.000000 0.000000 66.267631 -3.944147 40.691612 151.864368 -39.240615 109.790585 15.893401 -22.672770 -10.479336 0.000000 0.000000 0.000000 -7.125000 0.000000 0.000000 -9.842168 40.669797 -1.062991 0.000000 0.000000 0.000000 -65.882760 -9.828870 -39.824446 -153.103849 -38.077883 -110.564159 -30.972464 -9.252168 -17.851618 0.000000 0.000000 0.000000 7.125000 0.000000 0.000000 -1.913715 9.402102 -1.576105
-3.650540 17.554648 -2.157791 -901.867848 -243.894504 1264.558881 0.000000 0.000000 0.000000 -15.566902 -9.274767 -29.277789 1.979707 8.823584 25.245071 -0.516286 -12.712685 2.970235 0.273912 -3.362982 -9.291359 0.000000 0.000000 0.000000 29.935351 -6.007554 -1.387739 -3.785770 -11.869651 35.272474 -0.002444 5.221962 -3.733605 -0.003221 0.367839 -1.010610 -0.947304 4.010536 8.441626 -2.787265 5.181588 1.112291 -2.933794 2.589011 -3.388309 -6.089325 2.529152 -7.965093 -3.955083 6.464853 26.112817 0.379559 2.258112 9.550200 0.000000 0.000000 0.000000 67.520323 -3.604576 46.513653 148.386859 -42.235349 107.519540 13.984458 -31.903666 -11.071191 0.000000 0.000000 0.000000 -7.125000 0.000000 0.000000 -11.569171 41.108073 -1.213083 0.000000 0.000000 0.000000 -67.562285 -11.219433 -40.695363 -149.521274 -41.298401 -108.275023 -29.209880 -10.239091 -17.781448 0.000000 0.000000 0.000000 7.125000 0.000000 0.000000 -0.780155 9.806375 -0.635844
-4.454556 17.409303 -2.803380 -904.928319 -244.866791 1261.721018 0.000000 0.000000 0.000000 -14.002678 -11.856215 -32.107112 1.859168 8.566419 24.448094 -0.226878 -8.461751 1.970890 2.105391 -9.063079 -26.006726 0.000000 0.000000 0.000000 31.599761 -3.906507 1.152348 -2.640761 -10.088954 29.265777 -0.433425 8.660782 -12.357658 -0.177845 -2.708221 7.467876 1.591173 3.010981 9.003238 -1.286987 4.129011 1.094590 -2.718224 2.028187 -3.692980 -5.681813 1.640792 -9.365382 -4.798897 5.435186 26.224500 -0.064173 1.677902 9.908813 0.000000 0.000000 0.000000 66.449599 -3.483701 42.090249 153.674968 -37.526382 110.914511 18.082653 -25.787933 -12.343669 0.000000 0.000000 0.000000 -7.125000 0.000000 0.000000 -8.291825 42.792598 -0.455030 0.000000 0.000000 0.000000 -69.466977 -9.865624 -41.167505 -152.440777 -38.705296 -110.152422 -28.941714 -9.775839 -17.479010 0.000000 0.000000 0.000000 7.125000 0.000000 0.000000 -0.640794 10.190073 -0.517520
-5.166364 17.286518 -3.261255 -906.062706 -243.683616 1260.429583 0.000000 0.000000 0.000000 -11.491044 -15.600103 -31.713189 1.542972 7.840943 22.231975 -0.012834 -2.232606 -0.244082 1.833307 -8.509785 -24.273575 0.000000 0.000000 0.000000 33.325070 -2.338152 1.001093 -2.241548 -9.352063 26.902971 -1.152045 4.352668 -19.308885 -0.359829 -3.848848 10.652488 1.477626 2.383140 9.401398 0.025384 3.342384 1.387343 -1.217693 1.648232 -3.739559 -6.209292 0.640774 -9.365289 -3.662262 3.546984 24.542218 0.201826 0.895004 9.268498 0.000000 0.000000 0.000000 66.298882 -2.687769 41.274930 155.036303 -36.166333 111.731300 18.324198 -25.094912 -12.178258 0.000000 0.000000 0.000000 -7.125000 0.000000 0.000000 -8.043098 42.646245 -0.470794 0.000000 0.000000 0.000000 -67.616271 -8.639244 -43.024033 -156.146109 -35.009184 -112.377300 -29.705603 -14.078432 -18.218702 0.000000 0.000000 0.000000 7.125000 0.000000 0.000000 -1.047970 9.228392 -0.866639
-5.620378 17.304189 -3.629183 -906.775297 -240.958526 1259.015142 0.000000 0.000000 0.000000 -10.254611 -15.576979 -30.937318 1.414867 7.522935 21.274141 0.176183 0.577610 -8.154325 0.961378 -6.241471 -17.487235 0.000000 0.000000 0.000000 32.726301 -1.034171 0.641463 -2.240886 -9.350661 26.898581 -1.188240 7.395802 -19.480962 -0.651704 -5.156859 14.358036 2.432004 1.820242 10.357391 0.875499 2.761525 1.584466 -0.834176 1.351943 -4.079911 -6.403472 -0.943783 -9.273095 -2.980785 1.000388 23.214424 0.196183 -0.232970 8.808040 0.000000 0.000000 0.000000 65.326728 -2.057514 44.152310 149.232384 -41.541728 108.084331 18.558585 -30.060802 -11.604578 0.000000 0.000000 0.000000 -7.125000 0.000000 0.000000 -7.723515 42.074834 -0.561334 0.000000 0.000000 0.000000 -69.930570 -7.605789 -42.023320 -147.264423 -43.125758 -106.759041 -25.157074 -14.505703 -17.890655 0.000000 0.000000 0.000000 7.125000 0.000000 0.000000 1.875769 10.359781 1.508805
-5.825283 17.489040 -3.880052 -906.439003 -238.414269 1259.231953 0.000000 0.000000 0.000000 -11.478298 -14.215837 -30.978424 1.563272 7.890075 22.380827 0.316751 1.130227 -11.105436 0.922196 -6.118264 -17.128022 0.000000 0.000000 0.000000 31.834464 -4.644437 -1.765233 -2.675536 -10.150065 29.464269 -1.476331 3.736419 -22.106782 -1.698802 7.533471 -21.542372 2.254734 1.069990 10.648727 1.656247 1.797679 1.584991 0.199500 0.882363 -4.300338 -10.173327 -1.953130 -11.080397 0.846770 -0.420879 24.064282 1.978945 -0.891139 9.497108 0.000000 0.000000 0.000000 63.010347 -1.369475 42.216920 156.519518 -34.609584 112.590352 15.684050 -29.177919 -8.290203 0.000000 0.000000 0.000000 -7.125000 0.000000 0.000000 -9.616730 38.418912 -1.575979 0.000000 0.000000 0.000000 -70.741639 -7.463204 -42.723059 -155.398381 -35.791777 -111.943335 -28.260124 -13.219758 -18.539870 0.000000 0.000000 0.000000 7.125000 0.000000 0.000000 -0.074838 9.135438 -0.061839
-5.808419 17.557030 -4.013666 -905.459993 -235.023439 1260.254825 0.000000 0.000000 0.000000 -13.375246 -12.149609 -29.999296 1.409830 7.510045 21.235494 0.384910 -3.551382 -11.041216 0.850016 -5.851509 -16.362499 0.000000 0.000000 0.000000 30.067738 -0.628061 -1.883727 -2.780967 -10.331811 30.057937 -0.969240 9.857453 -17.868857 -0.063758 1.003413 -2.763711 2.522696 1.036751 10.293414 2.291362 1.795770 1.926271 0.720687 0.891772 -3.760478 -7.071139 -2.939964 -9.476732 -0.422815 -2.425889 21.523067 0.813040 -1.655854 8.354160 0.000000 0.000000 0.000000 63.019387 -3.227832 41.217628 153.580293 -37.615861 110.855624 18.148768 -24.847367 -10.114103 0.000000 0.000000 0.000000 -7.125000 0.000000 0.000000 -7.814357 40.489580 -0.874594 0.000000 0.000000 0.000000 -72.028200 -8.533392 -45.815713 -156.129937 -35.020873 -112.365744 -27.854979 -12.948413 -18.822413 0.000000 0.000000 0.000000 7.125000 0.000000 0.000000 0.219526 8.896467 0.182978
-5.671132 17.551853 -4.026875 -905.806023 -229.550299 1259.404224 0.000000 0.000000 0.000000 -10.509761 -15.481412 -26.508788 1.346569 7.346572 20.746190 0.401381 -2.809013 -11.331106 0.466239 -4.376253 -12.138139 0.000000 0.000000 0.000000 29.822890 3.772145 1.116624 -2.640374 -10.088803 29.264806 -0.583608 12.556201 -15.142880 -0.438553 -4.187557 11.612198 2.328737 1.134172 11.033714 2.800925 1.944823 2.540720 1.330987 0.977633 -3.553420 -6.374838 -3.358335 -10.251532 0.687017 -3.369504 21.613921 0.958904 -1.953123 8.554218 0.000000 0.000000 0.000000 61.956934 -4.097643 43.133882 149.099729 -41.652203 107.996357 18.714413 -26.266641 -10.926711 0.000000 0.000000 0.000000 -7.125000 0.000000 0.000000 -7.461628 41.385693 -0.669712 0.000000 0.000000 0.000000 -71.881435 -12.023856 -43.245848 -147.772362 -42.727551 -107.104879 -27.195483 -9.768967 -18.657132 0.000000 0.000000 0.000000 7.125000 0.000000 0.000000 0.626975 9.193318 0.518729
-5.345347 17.615375 -3.973368 -905.780164 -225.973272 1260.308364 0.000000 0.000000 0.000000 -10.248760 -14.063131 -26.791748 1.474639 7.673252 21.725939 0.299067 -0.363215 -10.207277 0.439340 -4.251822 -11.786335 0.000000 0.000000 0.000000 28.560256 4.363599 1.557748 -2.506781 -9.850167 28.492862 -0.256552 14.700412 -13.012523 -0.523884 -4.612696 12.811708 3.347163 1.362629 11.239730 3.191460 2.380461 2.904686 1.106371 1.194241 -3.265723 -7.345375 -4.542384 -11.409875 1.597155 -4.981928 20.496130 1.226344 -2.697565 8.501642 0.000000 0.000000 0.000000 55.616543 -6.914438 36.677792 152.951980 -38.222749 110.470326 18.112884 -22.742088 -9.528291 0.000000 0.000000 0.000000 -7.125000 0.000000 0.000000 -7.745675 39.878874 -0.984651 0.000000 0.000000 0.000000 -66.130481 -11.807421 -38.888998 -156.786048 -34.320930 -112.740950 -28.449337 -9.266160 -20.330712 0.000000 0.000000 0.000000 7.125000 0.000000 0.000000 0.022911 7.127656 0.018822
-4.805390 17.713081 -3.861409 -904.525783 -224.139467 1262.954591 0.000000 0.000000 0.000000 -11.623035 -16.737739 -26.980481 1.721304 8.259684 23.505613 0.197538 -0.334019 -8.281053 0.252748 -3.234641 -8.932780 0.000000 0.000000 0.000000 25.675641 5.200679 1.661420 -2.358471 -9.575872 27.613824 0.274657 17.403723 -9.405106 -0.441143 -4.206005 11.662009 3.416050 0.512591 10.723777 3.464187 1.255786 2.540018 1.510439 0.631578 -3.368991 -6.447789 -4.204256 -12.609626 1.115656 -4.543766 19.693634 0.947263 -2.470042 8.388862 0.000000 0.000000 0.000000 47.804902 -6.381355 35.874304 136.540861 -49.990031 98.947958 19.617599 -23.915440 -10.619575 0.000000 0.000000 0.000000 -7.125000 0.000000 0.000000 -6.614857 41.148233 -0.631422 0.000000 0.000000 0.000000 -60.454363 -12.905379 -36.255002 -136.198173 -50.165766 -98.684735 -30.176194 -9.292867 -19.347681 0.000000 0.000000 0.000000 7.125000 0.000000 0.000000 -1.204464 7.878117 -1.028186
